<?xml version="1.0" encoding="utf-8"?>
<!-- Generator: Adobe Illustrator 22.0.0, SVG Export Plug-In . SVG Version: 6.00 Build 0)  -->
<svg version="1.1" id="Слой_1" xmlns="http://www.w3.org/2000/svg" xmlns:xlink="http://www.w3.org/1999/xlink" x="0px" y="0px"
	 viewBox="0 0 100 100" style="enable-background:new 0 0 100 100;" xml:space="preserve">
<style type="text/css">
	.st0{display:none;opacity:0;fill:none;}
	.st1{fill:#DADFD8;}
	.st2{fill:#00769F;}
	.st3{display:none;}
	.st4{display:inline;fill:#FFFFFF;}
	.st5{enable-background:new    ;}
	.st6{display:inline;}
	.st7{display:inline;clip-path:url(#SVGID_2_);}
	.st8{fill:#FFFFFF;}
</style>
<rect x="18" y="18" class="st0" width="65" height="65"/>
<rect x="15" y="15" class="st1" width="65" height="65"/>
<g>
	<rect x="7" y="7" class="st2" width="65" height="65"/>
</g>
<g class="st3">
	<path class="st4" d="M31.7,42.6l6.6,2.1c-0.4,1.9-1.1,3.6-2.1,4.9s-2.1,2.3-3.5,2.9s-3.2,1-5.4,1c-2.6,0-4.8-0.4-6.5-1.2
		c-1.7-0.8-3.1-2.2-4.3-4.3c-1.2-2-1.8-4.6-1.8-7.8c0-4.2,1.1-7.5,3.2-9.8C20,28.2,23,27,26.9,27c3.1,0,5.5,0.7,7.2,2
		c1.8,1.3,3.1,3.3,3.9,6l-6.6,1.6c-0.2-0.8-0.5-1.3-0.7-1.7c-0.4-0.6-0.9-1.1-1.5-1.4c-0.6-0.3-1.3-0.5-2-0.5c-1.7,0-3,0.7-3.9,2.2
		c-0.7,1.1-1,2.7-1,5c0,2.8,0.4,4.8,1.2,5.8c0.8,1.1,2,1.6,3.4,1.6c1.4,0,2.5-0.4,3.3-1.3S31.3,44.2,31.7,42.6z"/>
	<path class="st4" d="M40.6,44.6l7.1-0.5c0.2,1.2,0.5,2.2,0.9,2.8c0.8,1,1.9,1.6,3.3,1.6c1.1,0,1.9-0.3,2.5-0.8
		c0.6-0.5,0.9-1.1,0.9-1.8c0-0.7-0.3-1.3-0.8-1.8c-0.6-0.5-1.8-1-3.8-1.5c-3.3-0.8-5.6-1.8-7-3.1c-1.4-1.3-2.1-2.9-2.1-4.9
		c0-1.3,0.4-2.6,1.1-3.7c0.7-1.2,1.8-2.1,3.3-2.8c1.5-0.7,3.4-1,6-1c3.1,0,5.5,0.6,7.1,1.8c1.6,1.2,2.6,3.2,2.9,5.8l-7.1,0.4
		c-0.2-1.2-0.6-2-1.2-2.5c-0.6-0.5-1.4-0.8-2.5-0.8c-0.9,0-1.5,0.2-2,0.6c-0.4,0.4-0.7,0.9-0.7,1.4c0,0.4,0.2,0.8,0.5,1.1
		c0.4,0.3,1.2,0.7,2.5,0.9c3.3,0.7,5.6,1.5,7.1,2.3c1.4,0.8,2.5,1.7,3.1,2.8c0.6,1.1,1,2.4,1,3.8c0,1.6-0.4,3.2-1.3,4.5
		s-2.1,2.4-3.6,3.2c-1.5,0.7-3.5,1.1-5.8,1.1c-4.1,0-7-0.8-8.6-2.5C41.7,49.3,40.8,47.2,40.6,44.6z"/>
</g>
<g id="Rectangle_9_copy__x2B__CS_2_" class="st5">
	<g class="st3">
		<defs>
			<rect id="SVGID_1_" x="7" y="6.5" width="66" height="68"/>
		</defs>
		<clipPath id="SVGID_2_" class="st6">
			<use xlink:href="#SVGID_1_"  style="overflow:visible;"/>
		</clipPath>
		<g class="st7">
			
				<image style="overflow:visible;enable-background:new    ;" width="354" height="354" id="Rectangle_9_copy__x2B__CS_xA0_Изображение" xlink:href="BAB80B7D.png"  transform="matrix(0.1862 0 0 0.1931 7.164 6.2125)">
			</image>
		</g>
	</g>
</g>
<g>
	<path class="st8" d="M40.9,49c-0.8,0.4-2.7,0.8-5,0.8c-6.1,0-9.9-3.5-9.9-8.7c0-5.7,4.4-9.2,10.3-9.2c2.3,0,4,0.4,4.7,0.8l-0.8,2.5
		c-0.9-0.4-2.2-0.7-3.8-0.7c-3.9,0-6.8,2.2-6.8,6.4c0,3.8,2.5,6.2,6.7,6.2c1.4,0,2.9-0.3,3.9-0.6L40.9,49z"/>
	<path class="st8" d="M43.7,46.8c1.1,0.6,2.8,1.1,4.5,1.1c2.6,0,4-1.2,4-3c0-1.6-1-2.5-3.6-3.5c-3.2-1-5.1-2.5-5.1-4.9
		c0-2.7,2.5-4.7,6.3-4.7c2,0,3.4,0.4,4.3,0.9l-0.7,1.8c-0.6-0.3-1.9-0.8-3.7-0.8c-2.6,0-3.6,1.4-3.6,2.6c0,1.6,1.2,2.4,3.8,3.3
		c3.3,1.1,4.9,2.6,4.9,5.1c0,2.7-2.2,5-6.8,5c-1.9,0-3.9-0.5-4.9-1.1L43.7,46.8z"/>
</g>
<g>
</g>
<g>
</g>
<g>
</g>
<g>
</g>
<g>
</g>
<g>
</g>
<g>
</g>
<g>
</g>
<g>
</g>
<g>
</g>
<g>
</g>
<g>
</g>
<g>
</g>
<g>
</g>
<g>
</g>
</svg>
